#tb 0: 1/1000
0,          0,          0,        0,      120, e1e66a88615da98523ef887f1463fc42
0,         33,         33,        0,      120, 549842fa98c8faf572882d38b0aae390
0,         66,         66,        0,      120, 17ee85785517705fdc78c6122a4b2548
0,        100,        100,        0,      120, 1143391d419dac30a6c11f366157c974
0,        133,        133,        0,      120, b62d2a962c4c36809ef75a610106715c
0,        166,        166,        0,      120, e6f143ca33fbc0e776bb149950cdedff
0,        200,        200,        0,      120, 01716a1077ec66df00474fd4510d2789
0,        233,        233,        0,      120, 8cb5b6a865fa2cbb15f0d7736fda88a6
0,        266,        266,        0,      120, 0fb9fd883e895a540fe1704dddbbab04
0,        300,        300,        0,      120, 150a3b99aa24ef102c92f87c8adb4386
